<?xml version="1.0" encoding="UTF-8"?>
<svg class="sol-illustration" fill="none" role="img" version="1.1" viewBox="0 0 169 32" xmlns="http://www.w3.org/2000/svg">
<g clip-path="url(#b)">
<g clip-path="url(#a)">
<path d="m21.491 7.1599c3.4209 0 6.4944 1.5006 8.579 3.8989 0.7082 0.8039 2.0312 0.2545 1.9243-0.8173-0.0669-0.69673-0.2005-1.4068-0.4009-2.1169-1.0557-3.7783-4.0757-6.7259-7.8574-7.7173-7.6035-2.0097-14.445 3.6979-14.445 11 0 0.469 0.02673 0.9379 0.08018 1.3934 0.13363 1.0585 1.5501 1.3264 2.0578 0.3886 1.9243-3.5907 5.706-6.0292 10.062-6.0292z" fill="#FFA310"/>
<path d="m7.164 10.509c0-3.4209 1.4997-6.4943 3.8965-8.5789 0.8033-0.70823 0.2544-2.0312-0.8168-1.9243-0.70968 0.066814-1.4193 0.20044-2.129 0.38752-3.7759 1.069-6.7217 4.0757-7.7125 7.8574-1.9951 7.6169 3.709 14.459 11.006 14.459 0.4686 0 0.9373-0.0267 1.3925-0.0802 1.0578-0.1336 1.3256-1.5501 0.3883-2.0579-3.5884-1.9242-6.0254-5.7059-6.0254-10.062z" fill="#149EF2"/>
<path d="m10.503 24.849c-3.4189 0-6.4906-1.4997-8.574-3.8965-0.70782-0.8033-2.03-0.2544-1.9231 0.8168 0.066775 0.6963 0.20033 1.406 0.40065 2.1156 1.055 3.7759 4.0733 6.7217 7.8528 7.7126 7.6124 1.995 14.45-3.709 14.45-11.006 0-0.4686-0.0267-0.9373-0.0802-1.3925-0.1335-1.0578-1.5491-1.3256-2.0566-0.3883-1.9365 3.6018-5.716 6.0388-10.07 6.0388z" fill="#F20057"/>
<path d="m24.849 21.497c0 3.4189-1.4997 6.4906-3.8965 8.574-0.8033 0.7078-0.2544 2.0299 0.8168 1.9231 0.6963-0.0668 1.406-0.2003 2.1156-0.4007 3.7759-1.055 6.7217-4.0732 7.7126-7.8527 1.995-7.6124-3.709-14.45-11.006-14.45-0.4686 0-0.9373 0.02671-1.3925 0.08013-1.0578 0.13355-1.3256 1.5492-0.3883 2.0567 3.6018 1.9365 6.0388 5.716 6.0388 10.07z" fill="#8252DD"/>
</g>
</g>
<text transform="matrix(.90771 .0039631 -.0039215 1.1017 0 0)" x="39.894421" y="23.484827" fill="#ffcc00" font-family="Avenir" font-size="25.546px" font-weight="800" stroke-width="1.3685" style="font-variant-caps:normal;font-variant-east-asian:normal;font-variant-ligatures:normal;font-variant-numeric:normal" xml:space="preserve"><tspan x="39.894421" y="23.484827" fill="#ffcc00" font-family="Avenir" font-size="25.546px" font-weight="800" stroke-width="1.3685" style="font-variant-caps:normal;font-variant-east-asian:normal;font-variant-ligatures:normal;font-variant-numeric:normal">QueueHero</tspan></text>
<defs>
<clipPath id="b">
<rect width="32" height="32" fill="#fff"/>
</clipPath>
<clipPath id="a">
<rect width="32" height="32" fill="#fff"/>
</clipPath>
</defs>
</svg>
